<svg width="132" height="131" viewBox="0 0 132 131" fill="none" xmlns="http://www.w3.org/2000/svg">
<g clip-path="url(#clip0_408_6823)">
<path d="M10.2085 57.3539L10.0322 59.8399L4.09044 61.0036L9.80296 63.0135L9.62665 65.4819L0 67.4918L0.176312 65.1116L6.22382 63.8951L0.405518 61.8499L0.564199 59.6459L6.61171 58.4647L0.793405 56.3842L0.969717 53.9863L10.2085 57.3539Z" fill="white" fill-opacity="0.45"/>
<path d="M12.8002 46.9342L10.8255 54.022L1.72778 51.5007L3.68485 44.4482L5.60665 44.9772L4.26668 49.7905L5.97691 50.2665L7.19346 45.8411L9.00948 46.3524L7.81056 50.7779L9.52078 51.2539L10.8608 46.4053L12.8002 46.9342Z" fill="white" fill-opacity="0.45"/>
<path d="M15.9387 32.5645C17.8076 34.0808 18.1073 36.4257 16.926 38.5415C15.5684 41.0098 12.624 41.909 10.1733 40.5691C7.75778 39.2467 6.92912 36.2494 8.28672 33.7987C9.41512 31.7534 11.5661 30.6956 13.7524 31.3832L13.1177 33.64C11.7777 33.2345 10.7375 33.7634 10.1556 34.8213C9.43275 36.126 9.90879 37.7657 11.3193 38.5415C12.7298 39.3172 14.3695 38.8412 15.0924 37.5365C15.6742 36.4786 15.5332 35.315 14.4576 34.3629L15.9387 32.5645Z" fill="white" fill-opacity="0.45"/>
<path d="M23.4319 28.8095L19.1123 28.9858L18.6891 29.5147L21.2104 31.5599L19.747 33.376L12.3948 27.4342L15.3921 23.7141C16.6792 22.1272 18.4952 21.8451 19.9233 23.0088C21.1222 23.9785 21.3867 25.4243 20.6991 26.8348L25.1774 26.6408L23.4319 28.8095ZM18.5657 26.5703C19.0946 25.918 19.077 25.2303 18.5304 24.7896C18.0015 24.3664 17.3139 24.4898 16.7849 25.1422L15.4097 26.8524L17.1728 28.2805L18.5657 26.5703Z" fill="white" fill-opacity="0.45"/>
<path d="M31.2955 21.193L25.8122 26.0945L19.5178 19.0596L24.9659 14.1758L26.3058 15.6744L22.5857 19.0067L23.7669 20.3291L27.1874 17.2789L28.4392 18.6894L25.0188 21.7396L26.2001 23.0619L29.9555 19.712L31.2955 21.193Z" fill="white" fill-opacity="0.45"/>
<path d="M38.2245 16.6614L36.7434 15.5507L33.3759 17.6664L33.7285 19.4824L31.6128 20.8048L29.9202 10.7021L31.9301 9.43262L40.3226 15.3391L38.2245 16.6614ZM32.3356 12.2889L32.9704 15.5507L35.0156 14.2636L32.3356 12.2889Z" fill="white" fill-opacity="0.45"/>
<path d="M41.6274 6.82375L44.5718 13.6294L42.456 14.5462L39.5116 7.74057L36.7083 8.95712L35.8972 7.08821L43.6373 3.73828L44.4484 5.60719L41.6274 6.82375Z" fill="white" fill-opacity="0.45"/>
<path d="M55.4678 10.3146L48.3271 12.1483L45.9822 2.99766L53.0699 1.18164L53.5636 3.12108L48.7326 4.35526L49.1734 6.08312L53.6165 4.93709L54.0925 6.77074L49.6495 7.91677L50.0903 9.64463L54.9741 8.39281L55.4678 10.3146Z" fill="white" fill-opacity="0.45"/>
<path d="M70.1723 9.4856L67.6686 9.46797L66.1171 3.63203L64.495 9.46797L62.009 9.45034L59.3467 0L61.7269 0.0176312L63.349 5.97699L64.9887 0.0352624H67.2102L68.8146 5.99462L70.4896 0.0528937L72.8875 0.0705249L70.1723 9.4856Z" fill="white" fill-opacity="0.45"/>
<path d="M84.048 7.35174C83.4485 10.0317 80.8038 11.6714 78.0534 11.0543C75.3029 10.4372 73.6103 7.82778 74.2274 5.14784C74.8269 2.45026 77.4715 0.810555 80.222 1.42765C82.9725 2.02711 84.6475 4.65416 84.048 7.35174ZM81.7736 6.84043C82.1262 5.25362 81.2446 3.82549 79.746 3.4905C78.2473 3.15551 76.8368 4.07233 76.4842 5.64151C76.1316 7.21069 77.0131 8.62119 78.5118 8.95618C80.0104 9.3088 81.4209 8.40961 81.7736 6.84043Z" fill="white" fill-opacity="0.45"/>
<path d="M89.4608 14.6865L88.1032 10.5784L87.4861 10.3139L86.2166 13.2936L84.0833 12.3768L87.7858 3.68457L92.176 5.55348C94.0625 6.34689 94.8207 8.02185 94.0978 9.73208C93.4983 11.1602 92.176 11.8126 90.6421 11.5305L92.0526 15.7796L89.4608 14.6865ZM90.2718 9.37946C91.03 9.71445 91.6999 9.50287 91.982 8.86815C92.2465 8.25106 91.9291 7.61633 91.171 7.29897L89.1434 6.43504L88.2619 8.53316L90.2718 9.37946Z" fill="white" fill-opacity="0.45"/>
<path d="M98.6113 19.9581L92.6873 16.2556L97.6945 8.25098L99.6692 9.48516L95.7375 15.7795L99.6869 18.2479L98.6113 19.9581Z" fill="white" fill-opacity="0.45"/>
<path d="M108.626 15.9742C110.971 18.0371 111.253 20.8228 109.402 22.9386C107.551 25.0543 104.73 25.1248 102.402 23.0796L99.5989 20.6112L105.84 13.5059L108.626 15.9742ZM103.672 21.5104C104.994 22.6741 106.581 22.6388 107.656 21.4046C108.732 20.1705 108.573 18.6013 107.251 17.4376L106.263 16.5561L102.667 20.6289L103.672 21.5104Z" fill="white" fill-opacity="0.45"/>
<path d="M117.583 35.6331C115.379 36.6205 113.157 35.8447 111.782 33.8524C110.178 31.5427 110.689 28.4925 112.981 26.9057C115.255 25.3365 118.306 25.9183 119.892 28.228C121.215 30.1498 121.197 32.5477 119.61 34.205L117.865 32.6358C118.817 31.6132 118.817 30.4495 118.129 29.4446C117.283 28.2104 115.608 27.9106 114.286 28.8275C112.963 29.7443 112.646 31.4193 113.492 32.6534C114.18 33.6408 115.273 34.0463 116.631 33.4997L117.583 35.6331Z" fill="white" fill-opacity="0.45"/>
<path d="M118.111 45.0477L115.149 38.7181L123.718 34.7158L124.706 36.8316L117.988 39.9699L119.963 44.1838L118.111 45.0477Z" fill="white" fill-opacity="0.45"/>
<path d="M120.457 52.8586L121.938 51.7478L120.862 47.9218L119.028 47.7455L118.358 45.3477L128.532 46.5995L129.184 48.8915L121.127 55.2388L120.457 52.8586ZM126.31 48.4507L122.995 48.1334L123.648 50.4607L126.31 48.4507Z" fill="white" fill-opacity="0.45"/>
<path d="M128.814 62.5204L128.108 60.2989C128.972 60.0344 129.325 59.2586 129.237 58.5181C129.149 57.7424 128.673 57.3016 128.144 57.3545C127.773 57.3897 127.509 57.6013 127.438 58.2008L127.227 60.1931C127.051 61.8681 126.257 62.9083 124.776 63.067C122.766 63.2962 121.532 61.6212 121.303 59.5408C121.074 57.425 121.885 55.5737 123.701 55.1153L124.424 57.4426C123.489 57.7953 123.136 58.5005 123.242 59.4526C123.33 60.3165 123.789 60.7926 124.371 60.7397C124.794 60.6868 125.041 60.4752 125.094 59.7876L125.305 57.7776C125.464 56.4024 126.028 55.1506 127.738 54.9566C129.554 54.7627 130.859 56.1379 131.106 58.3418C131.335 60.387 130.489 61.9739 128.814 62.5204Z" fill="white" fill-opacity="0.45"/>
<path d="M128.532 72.3584L128.179 70.0487C129.078 69.9253 129.537 69.2024 129.572 68.4619C129.607 67.6861 129.202 67.1748 128.673 67.1572C128.285 67.1396 128.003 67.2982 127.844 67.8801L127.315 69.8195C126.874 71.4416 125.94 72.3584 124.441 72.2879C122.431 72.1997 121.462 70.3485 121.567 68.2503C121.673 66.117 122.766 64.4244 124.618 64.248L124.97 66.6635C123.983 66.8575 123.524 67.5098 123.489 68.4619C123.454 69.3435 123.824 69.8724 124.388 69.9077C124.812 69.9253 125.094 69.749 125.252 69.079L125.764 67.1219C126.134 65.782 126.892 64.6359 128.62 64.7065C130.454 64.7946 131.529 66.3638 131.423 68.5853C131.335 70.6482 130.26 72.0939 128.532 72.3584Z" fill="white" fill-opacity="0.45"/>
<path d="M124.794 93.9387C123.418 96.7421 120.791 97.7294 118.27 96.4952C115.749 95.261 114.938 92.5635 116.313 89.7601L117.97 86.4102L126.451 90.5888L124.794 93.9387ZM118.164 90.5711C117.389 92.1579 117.829 93.6566 119.31 94.3795C120.774 95.1023 122.255 94.5382 123.031 92.9513L123.612 91.77L118.764 89.3898L118.164 90.5711Z" fill="white" fill-opacity="0.45"/>
<path d="M113.228 95.3848L121.109 100.586L119.822 102.525L111.941 97.3242L113.228 95.3848Z" fill="white" fill-opacity="0.45"/>
<path d="M109.084 109.631C108.802 109.437 108.573 109.26 108.397 109.102C106.228 107.233 106.017 104.324 107.886 102.173C109.754 100.004 112.858 99.7395 114.956 101.556C117.036 103.372 117.23 106.457 115.379 108.608C114.004 110.195 112.047 110.953 110.213 110.23L111.2 108.114C112.364 108.396 113.175 107.903 113.774 107.215C114.779 106.051 114.638 104.377 113.422 103.336C112.205 102.278 110.513 102.402 109.472 103.583C108.661 104.518 108.556 105.628 109.12 106.58L111.006 104.394L112.505 105.681L109.084 109.631Z" fill="white" fill-opacity="0.45"/>
<path d="M103.777 106.739L110.037 113.809L108.291 115.361L102.032 108.291L103.777 106.739Z" fill="white" fill-opacity="0.45"/>
<path d="M101.15 118.235L96.9011 112.152L98.8053 110.83L103.054 116.913L105.558 115.167L106.722 116.825L99.7926 121.656L98.629 119.998L101.15 118.235Z" fill="white" fill-opacity="0.45"/>
<path d="M88.1209 117.001L89.4785 118.252L93.0576 116.507L92.899 114.673L95.1381 113.58L95.7552 123.806L93.6218 124.864L85.917 118.111L88.1209 117.001ZM93.4984 121.955L93.2163 118.64L91.0477 119.698L93.4984 121.955Z" fill="white" fill-opacity="0.45"/>
<path d="M78.5117 120.21L85.194 118.2L87.9092 127.245L85.6876 127.915L83.5542 120.81L79.0936 122.15L78.5117 120.21Z" fill="white" fill-opacity="0.45"/>
<path d="M66.2051 131C64.0718 131.036 62.7142 129.749 62.6789 127.809C62.6436 125.817 64.0012 124.477 66.1875 124.442L68.409 124.406L68.3561 121.515L70.6835 121.462L70.8598 130.912L66.2051 131ZM66.3815 126.399C65.4823 126.416 64.9357 126.945 64.9533 127.756C64.971 128.514 65.5351 129.043 66.4343 129.026L68.4972 128.99L68.4443 126.363L66.3815 126.399Z" fill="white" fill-opacity="0.45"/>
<path d="M55.6619 120.668L58.0068 124.3L58.6768 124.406L59.1528 121.197L61.4625 121.55L60.0697 130.894L55.3445 130.189C53.3169 129.889 52.1709 128.461 52.4353 126.628C52.6645 125.094 53.7753 124.142 55.3269 124.018L52.8761 120.245L55.6619 120.668ZM56.2084 125.993C55.3798 125.869 54.7803 126.24 54.6921 126.927C54.5864 127.597 55.0624 128.126 55.8734 128.25L58.0421 128.567L58.3771 126.328L56.2084 125.993Z" fill="white" fill-opacity="0.45"/>
<path d="M41.5393 121.426C42.4208 118.817 45.2242 117.477 47.8865 118.394C50.5488 119.293 51.9593 122.079 51.0778 124.67C50.1962 127.28 47.3928 128.637 44.7129 127.738C42.033 126.839 40.6577 124.053 41.5393 121.426ZM43.7432 122.184C43.2142 123.718 43.9371 125.235 45.4005 125.728C46.8639 126.222 48.3449 125.464 48.8739 123.93C49.3852 122.414 48.6623 120.915 47.2165 120.421C45.7531 119.91 44.2545 120.65 43.7432 122.184Z" fill="white" fill-opacity="0.45"/>
<path d="M34.1518 122.837C31.4366 121.303 30.5903 118.623 31.9655 116.172C33.3408 113.722 36.0736 113.069 38.7888 114.603L42.0506 116.437L37.4136 124.67L34.1518 122.837ZM37.872 116.401C36.3381 115.538 34.8042 115.908 33.9931 117.318C33.1821 118.746 33.6758 120.245 35.2097 121.109L36.3557 121.761L39.018 117.036L37.872 116.401Z" fill="white" fill-opacity="0.45"/>
<path d="M24.1195 109.279C25.8474 107.198 28.2628 106.898 30.2023 108.503C32.177 110.143 32.3885 112.593 30.6607 114.674L27.3636 118.676L25.5653 117.195L28.8799 113.193C29.7968 112.082 29.7615 110.901 28.8447 110.143C27.9807 109.437 26.8347 109.649 25.9355 110.76L22.6385 114.762L20.8401 113.281L24.1195 109.279Z" fill="white" fill-opacity="0.45"/>
<path d="M16.9966 100.04C19.0947 98.8583 21.3692 99.4225 22.9383 101.274C24.7367 103.425 24.5075 106.51 22.3918 108.291C20.276 110.072 17.1906 109.772 15.3745 107.621C13.8759 105.84 13.6643 103.442 15.0924 101.644L16.979 103.054C16.1151 104.165 16.2385 105.329 17.0143 106.246C17.984 107.392 19.6589 107.533 20.8931 106.51C22.1273 105.47 22.286 103.777 21.3163 102.631C20.5405 101.715 19.4121 101.415 18.125 102.067L16.9966 100.04Z" fill="white" fill-opacity="0.45"/>
<path d="M10.4906 96.6363L16.8908 92.8809L18.0544 94.8732L11.6543 98.6286L13.2059 101.273L11.4604 102.296L7.1936 95.0142L8.9391 93.9916L10.4906 96.6363Z" fill="white" fill-opacity="0.45"/>
<path d="M5.81842 85.0352L7.08786 86.9922C6.32972 87.4683 6.18867 88.3146 6.45314 89.0198C6.73524 89.7427 7.31707 90.0424 7.81074 89.8485C8.16337 89.7074 8.35731 89.443 8.26916 88.8435L7.95179 86.8512C7.68733 85.1938 8.16337 83.9773 9.55624 83.4307C11.4251 82.6902 13.0648 83.9773 13.823 85.9343C14.5988 87.909 14.299 89.919 12.677 90.8358L11.3723 88.773C12.1833 88.1911 12.342 87.4154 11.9893 86.5338C11.672 85.7228 11.1078 85.3878 10.5788 85.5994C10.191 85.758 10.0146 86.0401 10.1204 86.7101L10.4554 88.7025C10.667 90.0777 10.4378 91.4353 8.83336 92.07C7.12313 92.74 5.50105 91.735 4.69002 89.6898C3.94951 87.768 4.35502 86.0049 5.81842 85.0352Z" fill="white" fill-opacity="0.45"/>
<path d="M7.0174 80.7784C4.70325 77.8878 4.04043 75.7966 0.503849 77.0178C3.38994 74.1603 5.8256 73.5398 4.26445 70.5042C6.73297 72.9203 7.34612 75.2021 10.778 74.2648C7.89106 76.5538 5.64108 77.2231 7.0174 80.7784Z" fill="#0BE1E2"/>
<path d="M127.017 85.7784C124.703 82.8878 124.04 80.7966 120.504 82.0178C123.39 79.1603 125.826 78.5398 124.264 75.5042C126.733 77.9203 127.346 80.2021 130.778 79.2648C127.891 81.5538 125.641 82.2231 127.017 85.7784Z" fill="#0BE1E2"/>
</g>
<defs>
<clipPath id="clip0_408_6823">
<rect width="131.441" height="131" fill="white"/>
</clipPath>
</defs>
</svg>
