<svg width="25" height="25" viewBox="0 0 25 25" fill="none" xmlns="http://www.w3.org/2000/svg">
<g clip-path="url(#clip0_880_7505)">
<path d="M12.5 0C5.60729 0 0 5.60729 0 12.5C0 19.3927 5.60729 25 12.5 25C19.3927 25 25 19.3927 25 12.5C25 5.60729 19.3927 0 12.5 0ZM12.4052 16.0615C12.0021 16.4646 11.4719 16.6656 10.9396 16.6656C10.4073 16.6656 9.87188 16.4625 9.46458 16.0562L6.56667 13.2479L8.01771 11.751L10.9271 14.5708L16.9781 8.63229L18.4406 10.1167L12.4052 16.0615Z" fill="url(#paint0_linear_880_7505)"/>
</g>
<defs>
<linearGradient id="paint0_linear_880_7505" x1="10.7359" y1="1.81616" x2="11.1238" y2="22.6946" gradientUnits="userSpaceOnUse">
<stop stop-color="#15F2C6"/>
<stop offset="1" stop-color="#00CEFF"/>
</linearGradient>
<clipPath id="clip0_880_7505">
<rect width="25" height="25" fill="white"/>
</clipPath>
</defs>
</svg>
