<svg width="48" height="49" viewBox="0 0 48 49" fill="none" xmlns="http://www.w3.org/2000/svg">
<path d="M46.8358 21.1723L43.5619 17.8991C42.7849 17.1221 42.1482 15.5866 42.1482 14.4854V9.85624C42.1482 7.65415 40.3493 5.8552 38.1477 5.85403H33.5167C32.4168 5.85403 30.8795 5.21614 30.1024 4.43972L26.8292 1.16647C25.2739 -0.388823 22.7273 -0.388823 21.1721 1.16647L17.8988 4.44207C17.1211 5.21907 15.5821 5.8552 14.4846 5.8552H9.85536C7.6562 5.8552 5.85491 7.65415 5.85491 9.85624V14.4856C5.85491 15.5824 5.21831 17.1227 4.44119 17.8992L1.16735 21.1725C-0.389116 22.7278 -0.389116 25.2743 1.16735 26.832L4.44119 30.1053C5.21878 30.8823 5.85491 32.422 5.85491 33.5189V38.1483C5.85491 40.348 7.6562 42.1493 9.85536 42.1493H14.4847C15.5846 42.1493 17.1218 42.7859 17.8989 43.5624L21.1722 46.8369C22.7275 48.391 25.274 48.391 26.8293 46.8369L30.1025 43.5624C30.8803 42.7854 32.4169 42.1493 33.5168 42.1493H38.1479C40.3494 42.1493 42.1483 40.348 42.1483 38.1483V33.5189C42.1483 32.4173 42.7855 30.8818 43.562 30.1053L46.8359 26.832C48.3899 25.2743 48.3899 22.7276 46.8358 21.1723ZM20.8253 33.0021L11.9993 24.175L14.8279 21.347L20.826 27.345L33.1729 15.001L36.0009 17.829L20.8253 33.0021Z" fill="url(#paint0_linear_861_7069)"/>
<defs>
<linearGradient id="paint0_linear_861_7069" x1="24.0007" y1="0" x2="24.0007" y2="48.0025" gradientUnits="userSpaceOnUse">
<stop stop-color="#00CEFF"/>
<stop offset="1" stop-color="#0054FC"/>
</linearGradient>
</defs>
</svg>
