<svg width="17" height="17" viewBox="0 0 17 17" fill="none" xmlns="http://www.w3.org/2000/svg">
<g clip-path="url(#clip0_1002_15752)">
<path d="M8.14453 16.8789C3.7332 16.8789 0.144531 13.2902 0.144531 8.87891C0.144531 4.46757 3.7332 0.878906 8.14453 0.878906C12.5559 0.878906 16.1445 4.46757 16.1445 8.87891C16.1445 13.2902 12.5559 16.8789 8.14453 16.8789ZM8.14453 2.21224C4.46853 2.21224 1.47786 5.20291 1.47786 8.87891C1.47786 12.5549 4.46853 15.5456 8.14453 15.5456C11.8205 15.5456 14.8112 12.5549 14.8112 8.87891C14.8112 5.20291 11.8205 2.21224 8.14453 2.21224ZM11.4779 8.87891C11.4779 8.51024 11.1799 8.21224 10.8112 8.21224H8.8112V4.87891C8.8112 4.51024 8.51253 4.21224 8.14453 4.21224C7.77653 4.21224 7.47786 4.51024 7.47786 4.87891V8.87891C7.47786 9.24757 7.77653 9.54557 8.14453 9.54557H10.8112C11.1799 9.54557 11.4779 9.24757 11.4779 8.87891Z" fill="#0B0D28"/>
</g>
<defs>
<clipPath id="clip0_1002_15752">
<rect width="16" height="16" fill="white" transform="translate(0.144531 0.878906)"/>
</clipPath>
</defs>
</svg>
