<svg width="16" height="17" viewBox="0 0 16 17" fill="none" xmlns="http://www.w3.org/2000/svg">
<path d="M9 5.87891H7C6.73478 5.87891 6.48043 5.98426 6.29289 6.1718C6.10536 6.35934 6 6.61369 6 6.87891V14.3789C6 14.6441 6.10536 14.8985 6.29289 15.086C6.48043 15.2735 6.73478 15.3789 7 15.3789H9C9.26522 15.3789 9.51957 15.2735 9.70711 15.086C9.89464 14.8985 10 14.6441 10 14.3789V6.87891C10 6.61369 9.89464 6.35934 9.70711 6.1718C9.51957 5.98426 9.26522 5.87891 9 5.87891ZM7 14.3789V6.87891H9V14.3789H7ZM14 2.37891H12C11.7348 2.37891 11.4804 2.48426 11.2929 2.6718C11.1054 2.85934 11 3.11369 11 3.37891V14.3789C11 14.6441 11.1054 14.8985 11.2929 15.086C11.4804 15.2735 11.7348 15.3789 12 15.3789H14C14.2652 15.3789 14.5196 15.2735 14.7071 15.086C14.8946 14.8985 15 14.6441 15 14.3789V3.37891C15 3.11369 14.8946 2.85934 14.7071 2.6718C14.5196 2.48426 14.2652 2.37891 14 2.37891ZM12 14.3789V3.37891H14V14.3789H12ZM4 9.37891H2C1.73478 9.37891 1.48043 9.48426 1.29289 9.6718C1.10536 9.85934 1 10.1137 1 10.3789V14.3789C1 14.6441 1.10536 14.8985 1.29289 15.086C1.48043 15.2735 1.73478 15.3789 2 15.3789H4C4.26522 15.3789 4.51957 15.2735 4.70711 15.086C4.89464 14.8985 5 14.6441 5 14.3789V10.3789C5 10.1137 4.89464 9.85934 4.70711 9.6718C4.51957 9.48426 4.26522 9.37891 4 9.37891ZM2 14.3789V10.3789H4V14.3789H2Z" fill="black"/>
</svg>
