<svg width="60" height="60" viewBox="0 0 60 60" fill="none" xmlns="http://www.w3.org/2000/svg">
<rect width="60" height="60" rx="12.5" fill="url(#paint0_linear_1195_3672)"/>
<mask id="mask0_1195_3672" style="mask-type:alpha" maskUnits="userSpaceOnUse" x="0" y="0" width="60" height="60">
<rect width="60" height="60" rx="12.5" fill="url(#paint1_linear_1195_3672)"/>
</mask>
<g mask="url(#mask0_1195_3672)">
</g>
<g clip-path="url(#clip0_1195_3672)">
<path fill-rule="evenodd" clip-rule="evenodd" d="M44.7236 30.4997C44.7236 38.3551 38.3551 44.7235 30.4998 44.7235C22.6437 44.7235 16.2759 38.355 16.2759 30.4997C16.2759 22.6437 22.6437 16.2759 30.4998 16.2759C38.3551 16.2759 44.7236 22.6437 44.7236 30.4997ZM17.4237 15.8182H14.6128C16.4225 13.8618 18.5913 12.2395 21.0154 11.0549C23.8782 9.65615 27.0968 8.87109 30.4997 8.87109C36.4725 8.87109 41.8798 11.2919 45.7939 15.206C49.7079 19.1198 52.1289 24.5271 52.1289 30.4997C52.1289 36.4725 49.7079 41.8798 45.7938 45.7938C41.8798 49.7079 36.4725 52.1289 30.4997 52.1289C24.5271 52.1289 19.1198 49.708 15.2059 45.7939C11.292 41.8799 8.87109 36.4725 8.87109 30.4997C8.87109 29.5544 8.92823 28.6119 9.05054 27.6744C9.11868 27.152 8.75041 26.6733 8.22806 26.6052C7.70572 26.537 7.22701 26.9053 7.15887 27.4276C7.02613 28.4451 6.95703 29.4735 6.95703 30.4997C6.95703 37.0008 9.59222 42.8867 13.8526 47.1472C18.113 51.4077 23.9987 54.043 30.4997 54.043C37.0007 54.043 42.8867 51.4077 47.1472 47.1472C51.4078 42.8867 54.043 37.0008 54.043 30.4997C54.043 23.9987 51.4078 18.113 47.1473 13.8526C42.8867 9.59222 37.0008 6.95703 30.4997 6.95703C26.7985 6.95703 23.2956 7.81195 20.178 9.33525C17.6792 10.5562 15.4278 12.2089 13.5199 14.1967V11.9139C13.5199 11.3853 13.0914 10.9568 12.5628 10.9568C12.0343 10.9568 11.6058 11.3853 11.6058 11.9139V16.7752C11.6058 17.3038 12.0343 17.7322 12.5628 17.7322H17.4237C17.9523 17.7322 18.3807 17.3038 18.3807 16.7752C18.3807 16.2466 17.9523 15.8182 17.4237 15.8182ZM31.4722 38.0383C32.3479 37.867 33.1352 37.4695 33.7542 36.9167C34.623 36.1408 35.1605 35.0632 35.1605 33.8678C35.1605 32.6724 34.623 31.5947 33.7542 30.8189C32.9132 30.0679 31.762 29.6035 30.4998 29.6035C29.7166 29.6035 29.016 29.3275 28.5165 28.8815C27.4963 27.9704 27.4965 26.5357 28.5165 25.6249C29.0185 25.1765 29.7194 24.8992 30.4997 24.8992C30.8809 24.8992 31.2484 24.9684 31.5871 25.0935C31.9296 25.2202 32.2335 25.402 32.4831 25.6249C32.8754 25.9758 33.4779 25.9424 33.8289 25.5501C34.18 25.1579 34.1465 24.5553 33.7542 24.2043C33.3209 23.8173 32.8089 23.5076 32.2451 23.2991C31.9879 23.204 31.7179 23.1294 31.4376 23.0776L31.4091 21.8846C31.3967 21.3581 30.9599 20.9414 30.4334 20.9537C29.9069 20.9661 29.4901 21.4029 29.5025 21.9294L29.5301 23.0852C28.6517 23.2556 27.8636 23.6523 27.2454 24.2042C25.3725 25.8767 25.3726 28.6297 27.2454 30.302C28.0863 31.053 29.2376 31.5174 30.4998 31.5174C31.283 31.5174 31.9836 31.7933 32.4831 32.2394C32.9546 32.6605 33.2463 33.2366 33.2463 33.8677C33.2463 34.4988 32.9546 35.0749 32.4831 35.496C31.9836 35.9421 31.2829 36.218 30.4998 36.218C29.9598 36.218 29.5584 36.1233 29.2118 35.948C28.8334 35.7566 28.4709 35.4503 28.0553 35.0582C27.6712 34.697 27.0669 34.7153 26.7057 35.0994C26.3444 35.4835 26.3628 36.0877 26.7468 36.449C27.2811 36.9531 27.7683 37.3575 28.3519 37.6528C28.7255 37.8417 29.1202 37.9779 29.5649 38.0557L29.5904 39.1147C29.6028 39.6412 30.0397 40.058 30.5661 40.0456C31.0926 40.0333 31.5094 39.5964 31.497 39.0699L31.4722 38.0383Z" fill="#0B0D28"/>
</g>
<defs>
<linearGradient id="paint0_linear_1195_3672" x1="30" y1="0" x2="30" y2="60" gradientUnits="userSpaceOnUse">
<stop stop-color="#00CEFF"/>
<stop offset="1" stop-color="#0054FC"/>
</linearGradient>
<linearGradient id="paint1_linear_1195_3672" x1="30" y1="0" x2="30" y2="60" gradientUnits="userSpaceOnUse">
<stop stop-color="#00CEFF"/>
<stop offset="1" stop-color="#0054FC"/>
</linearGradient>
<clipPath id="clip0_1195_3672">
<rect width="49" height="49" fill="white" transform="translate(6 6)"/>
</clipPath>
</defs>
</svg>
