<svg width="60" height="60" viewBox="0 0 60 60" fill="none" xmlns="http://www.w3.org/2000/svg">
<rect width="60" height="60" rx="12.5" fill="url(#paint0_linear_1195_3673)"/>
<mask id="mask0_1195_3673" style="mask-type:alpha" maskUnits="userSpaceOnUse" x="0" y="0" width="60" height="60">
<rect width="60" height="60" rx="12.5" fill="url(#paint1_linear_1195_3673)"/>
</mask>
<g mask="url(#mask0_1195_3673)">
</g>
<g clip-path="url(#clip0_1195_3673)">
<path d="M20.3848 28.5388C20.3848 34.2152 24.9864 38.8169 30.6628 38.8169C36.3392 38.8169 40.9409 34.2152 40.9409 28.5388C40.9409 22.8624 36.3392 18.2607 30.6628 18.2607C24.9892 18.2671 20.3911 22.8652 20.3848 28.5388ZM30.6628 29.1883C28.9572 29.1978 27.512 27.9346 27.2938 26.243C27.0756 24.5517 28.1527 22.9625 29.8051 22.5392V21.6703C29.8051 21.2768 30.1238 20.958 30.5173 20.958C30.9109 20.958 31.2296 21.2768 31.2296 21.6703V22.4959C32.8458 22.7694 34.0255 24.1745 34.0152 25.8141C34.0152 26.2028 33.7 26.518 33.3112 26.518C32.9225 26.518 32.6073 26.2028 32.6073 25.8141C32.6061 24.7381 31.7332 23.8668 30.6573 23.868C29.5813 23.8692 28.71 24.7425 28.7116 25.8184C28.7128 26.894 29.586 27.7653 30.662 27.7637C32.4066 27.7737 33.8554 29.1124 34.0029 30.8509C34.1503 32.5891 32.9475 34.1528 31.2296 34.4565V35.3055C31.2296 35.699 30.9109 36.0178 30.5173 36.0178C30.1238 36.0178 29.8051 35.699 29.8051 35.3055V34.4128C28.3165 34.0197 27.2763 32.6778 27.2664 31.1383C27.2664 30.7404 27.5891 30.4177 27.987 30.4177C28.3849 30.4177 28.7076 30.7404 28.7076 31.1383C28.71 32.1332 29.4597 32.9675 30.4486 33.076C30.4852 33.0701 30.5225 33.0673 30.5599 33.0669C30.6135 33.0669 30.6668 33.0733 30.7193 33.0852C31.7877 33.059 32.6355 32.1773 32.62 31.1089C32.6045 30.0401 31.7313 29.1835 30.6628 29.1883Z" fill="#0B0D28"/>
<path d="M47.158 43.7175C47.1529 43.7203 47.1473 43.7231 47.1413 43.7259L40.5292 46.8497C40.6004 47.2158 40.6314 47.5882 40.6215 47.961C40.6111 48.3466 40.2955 48.6539 39.91 48.6539C39.9032 48.6539 39.8965 48.6539 39.8897 48.6539L30.2126 48.3875C29.8191 48.3768 29.5091 48.0493 29.5198 47.6558C29.5306 47.2623 29.8585 46.9522 30.2516 46.963L39.1468 47.2078C38.8519 45.4839 37.382 44.2072 35.6339 44.1564L29.7472 43.9946C28.5845 43.9612 27.4446 43.6667 26.4115 43.1328L25.8125 42.8228C22.8708 41.2901 19.326 41.4897 16.5751 43.3431L16.3394 51.9068L17.3509 51.3651C18.3562 50.8245 19.5323 50.6957 20.631 51.0061L30.6212 53.8104C32.5466 54.2047 34.5476 53.9813 36.3386 53.1712L50.1793 44.2184C49.3895 43.4099 48.1664 43.2068 47.158 43.7175Z" fill="#0B0D28"/>
<path d="M9.83838 53.3936L10.1894 40.6523L15.2207 40.7911L14.8697 53.5323L9.83838 53.3936Z" fill="#0B0D28"/>
<path d="M31.3318 14.4457V6.71229C31.3318 6.31878 31.013 6 30.6195 6C30.226 6 29.9072 6.31878 29.9072 6.71229V14.4457C29.9072 14.8392 30.226 15.158 30.6195 15.158C31.013 15.158 31.3318 14.8392 31.3318 14.4457Z" fill="#0B0D28"/>
<path d="M37.4368 14.4458V10.7826C37.4368 10.3891 37.118 10.0703 36.7245 10.0703C36.331 10.0703 36.0122 10.3891 36.0122 10.7826V14.4458C36.0122 14.8393 36.331 15.1581 36.7245 15.1581C37.118 15.1581 37.4368 14.8393 37.4368 14.4458Z" fill="#0B0D28"/>
<path d="M25.2263 14.4458V10.7826C25.2263 10.3891 24.9075 10.0703 24.514 10.0703C24.1205 10.0703 23.8018 10.3891 23.8018 10.7826V14.4458C23.8018 14.8393 24.1205 15.1581 24.514 15.1581C24.9075 15.1581 25.2263 14.8393 25.2263 14.4458Z" fill="#0B0D28"/>
</g>
<defs>
<linearGradient id="paint0_linear_1195_3673" x1="30" y1="0" x2="30" y2="60" gradientUnits="userSpaceOnUse">
<stop stop-color="#00CEFF"/>
<stop offset="1" stop-color="#0054FC"/>
</linearGradient>
<linearGradient id="paint1_linear_1195_3673" x1="30" y1="0" x2="30" y2="60" gradientUnits="userSpaceOnUse">
<stop stop-color="#00CEFF"/>
<stop offset="1" stop-color="#0054FC"/>
</linearGradient>
<clipPath id="clip0_1195_3673">
<rect width="48" height="48" fill="white" transform="translate(6 6)"/>
</clipPath>
</defs>
</svg>
