<svg width="35" height="27" viewBox="0 0 35 27" fill="none" xmlns="http://www.w3.org/2000/svg">
<path fill-rule="evenodd" clip-rule="evenodd" d="M33.566 1.54241C31.8428 -0.180804 29.0489 -0.180804 27.3257 1.54241L13.5504 15.3177L8.23792 10.0052C6.51471 8.28201 3.72083 8.28201 1.99761 10.0052C0.274396 11.7284 0.274397 14.5223 1.99761 16.2455L9.8942 24.1421C10.0382 24.3464 10.2016 24.5412 10.3844 24.724C12.1076 26.4472 14.9015 26.4472 16.6247 24.724L33.566 7.78272C35.2892 6.05951 35.2892 3.26563 33.566 1.54241Z" fill="url(#paint0_linear_338_6012)"/>
<path opacity="0.5" fill-rule="evenodd" clip-rule="evenodd" d="M9.93898 24.2607C8.71054 22.5153 8.87673 20.088 10.4376 18.5271L13.6473 15.3174L16.7154 18.3855C18.4622 20.1323 18.4622 22.9644 16.7154 24.7113C14.9686 26.4581 12.1364 26.4581 10.3896 24.7113L9.93898 24.2607Z" fill="#00CEFF"/>
<defs>
<linearGradient id="paint0_linear_338_6012" x1="31.4415" y1="2.78609" x2="13.4973" y2="23.3913" gradientUnits="userSpaceOnUse">
<stop stop-color="#15F2C6"/>
<stop offset="1" stop-color="#00CEFF"/>
</linearGradient>
</defs>
</svg>
