<svg width="17" height="17" viewBox="0 0 17 17" fill="none" xmlns="http://www.w3.org/2000/svg">
<g clip-path="url(#clip0_1002_15748)">
<path d="M8.48841 16.8849L8.02369 16.4866C7.38303 15.9501 1.78906 11.119 1.78906 7.58509C1.78906 3.88515 4.78847 0.885742 8.48841 0.885742C12.1883 0.885742 15.1878 3.88515 15.1878 7.58509C15.1878 11.119 9.59378 15.9502 8.95578 16.4892L8.48841 16.8849ZM8.48841 2.33434C5.58988 2.33762 3.24097 4.68652 3.23769 7.58506C3.23769 9.80512 6.67931 13.3516 8.48841 14.9748C10.2975 13.351 13.7391 9.80243 13.7391 7.58506C13.7358 4.68652 11.387 2.33765 8.48841 2.33434Z" fill="#0B0D28"/>
<path d="M8.48759 10.2408C7.02097 10.2408 5.83203 9.05188 5.83203 7.58525C5.83203 6.11863 7.02097 4.92969 8.48759 4.92969C9.95422 4.92969 11.1432 6.11863 11.1432 7.58525C11.1432 9.05188 9.95425 10.2408 8.48759 10.2408ZM8.48759 6.25744C7.75428 6.25744 7.15981 6.85191 7.15981 7.58522C7.15981 8.31853 7.75428 8.913 8.48759 8.913C9.22091 8.913 9.81537 8.31853 9.81537 7.58522C9.81537 6.85191 9.22094 6.25744 8.48759 6.25744Z" fill="#0B0D28"/>
</g>
<defs>
<clipPath id="clip0_1002_15748">
<rect width="16" height="16" fill="white" transform="translate(0.515625 0.878906)"/>
</clipPath>
</defs>
</svg>
