<svg width="60" height="60" viewBox="0 0 60 60" fill="none" xmlns="http://www.w3.org/2000/svg">
<rect width="60" height="60" rx="12.5" fill="url(#paint0_linear_1196_3596)"/>
<mask id="path-2-inside-1_1196_3596" fill="white">
<rect x="8" y="15" width="44" height="30" rx="1"/>
</mask>
<rect x="8" y="15" width="44" height="30" rx="1" stroke="black" stroke-width="6" mask="url(#path-2-inside-1_1196_3596)"/>
<path fill-rule="evenodd" clip-rule="evenodd" d="M19 17H41V44H19V17ZM25.5152 27.8347C26.3526 27.8347 27.0303 27.1562 27.0303 26.3195C27.0303 24.8837 28.3651 23.7018 29.9541 24.1126C31.9523 24.629 32.2137 27.4528 30.3225 28.3777C28.7926 29.1279 27.8042 30.7584 27.8042 32.5318V32.7464C27.8042 33.5831 28.4819 34.2615 29.3193 34.2615C30.1568 34.2615 30.8345 33.5831 30.8345 32.7464V32.5318C30.8345 31.9059 31.1571 31.3436 31.6557 31.0988C36.0789 28.9342 35.4193 22.3968 30.7117 21.1785C27.2422 20.2845 24 22.8652 24 26.3195C24 27.1562 24.6777 27.8347 25.5152 27.8347ZM28.2466 38.8335C27.5891 38.101 27.7367 37.1933 28.2466 36.6821C28.8074 36.1213 29.8387 36.1213 30.3832 36.6821C31.0133 37.3106 30.9587 38.2608 30.3832 38.8335C29.8191 39.3992 28.8858 39.4382 28.2466 38.8335Z" fill="black"/>
<defs>
<linearGradient id="paint0_linear_1196_3596" x1="30" y1="0" x2="30" y2="60" gradientUnits="userSpaceOnUse">
<stop stop-color="#00CEFF"/>
<stop offset="1" stop-color="#0054FC"/>
</linearGradient>
</defs>
</svg>
