<svg width="132" height="131" viewBox="0 0 132 131" fill="none" xmlns="http://www.w3.org/2000/svg">
<g clip-path="url(#clip0_408_6750)">
<path d="M13.411 49.7396L12.8232 52.4597L6.08132 52.804L12.0799 55.9028L11.4921 58.6057L0.532227 59.3115L1.10269 56.712L7.98287 56.316L1.86332 53.1483L2.38192 50.7381L9.2621 50.3766L3.15983 47.1745L3.7303 44.5749L13.411 49.7396Z" fill="#0D0F2A"/>
<path d="M17.6807 39.6681L14.327 47.1396L4.69824 42.853L8.03461 35.4158L10.0745 36.3282L7.79259 41.3896L9.60772 42.1988L11.6994 37.5505L13.6183 38.4113L11.5266 43.0595L13.3417 43.8687L15.6408 38.7556L17.6807 39.6681Z" fill="#0D0F2A"/>
<path d="M22.504 26.0505C24.3191 28.0303 24.2672 30.6471 22.625 32.7991C20.7234 35.2781 17.3179 35.7946 14.8459 33.9353C12.3911 32.076 11.9417 28.6501 13.8432 26.171C15.4163 24.1052 17.9748 23.296 20.274 24.3978L19.2022 26.7908C17.7847 26.1366 16.54 26.5326 15.7275 27.6172C14.7249 28.9428 14.9669 30.802 16.4017 31.8866C17.8365 32.9712 19.7208 32.713 20.7234 31.4046C21.5359 30.3372 21.5705 29.0288 20.5333 27.8065L22.504 26.0505Z" fill="#0D0F2A"/>
<path d="M30.7497 23.9153L25.9613 23.3816L25.4081 23.8809L27.8455 26.5493L25.9267 28.2881L18.8218 20.5066L22.7805 16.9258C24.4746 15.3936 26.5144 15.4108 27.9147 16.9258C29.0729 18.1997 29.1248 19.8352 28.1221 21.2641L33.0835 21.815L30.7497 23.9153ZM25.7538 20.6271C26.4453 20.0074 26.549 19.2327 26.0304 18.6645C25.5291 18.1136 24.7339 18.1308 24.0597 18.7678L22.2446 20.4205L23.956 22.297L25.7538 20.6271Z" fill="#0D0F2A"/>
<path d="M39.9636 17.5115L33.0489 21.9531L27.3269 13.1215L34.2071 8.71429L35.4172 10.5908L30.7324 13.6035L31.8042 15.2735L36.1086 12.5189L37.2496 14.2922L32.9451 17.0467L34.0169 18.7166L38.7362 15.6866L39.9636 17.5115Z" fill="#0D0F2A"/>
<path d="M47.5354 14.24L46.1006 12.7595L42.0036 14.481L42.0727 16.5297L39.497 17.6143L39.4624 6.2175L41.9171 5.18456L50.0765 13.1554L47.5354 14.24ZM41.8307 8.38667L41.9517 12.088L44.441 11.0379L41.8307 8.38667Z" fill="#0D0F2A"/>
<path d="M52.1335 4.3935L54.1215 12.3988L51.6149 13.0186L49.6269 5.01327L46.3078 5.83962L45.7546 3.65323L54.8994 1.39799L55.4526 3.58437L52.1335 4.3935Z" fill="#0D0F2A"/>
<path d="M65.7556 10.935L57.5616 11.6064L56.6973 1.13933L64.8394 0.467913L65.0295 2.68874L59.4632 3.15355L59.6187 5.11614L64.7184 4.70296L64.8912 6.80327L59.7916 7.21645L59.9472 9.17903L65.5482 8.71422L65.7556 10.935Z" fill="#0D0F2A"/>
<path d="M88.0556 15.4287L85.4107 14.5335L85.8256 7.81939L82.0571 13.3973L79.4294 12.5193L79.9653 1.60453L82.4892 2.4481L82.1089 9.29993L85.9466 3.60155L88.2976 4.39347L87.8827 11.2453L91.755 5.56413L94.2962 6.42491L88.0556 15.4287Z" fill="#0D0F2A"/>
<path d="M102.594 17.7699C100.969 20.3695 97.598 21.127 94.9185 19.4743C92.2391 17.8216 91.4093 14.4645 93.0343 11.8649C94.6592 9.24816 98.0475 8.49067 100.727 10.1434C103.406 11.7961 104.219 15.1531 102.594 17.7699ZM100.381 16.4099C101.332 14.8777 100.934 13.0528 99.465 12.1576C97.9956 11.2624 96.1805 11.71 95.2297 13.2422C94.2789 14.7572 94.6938 16.5648 96.1632 17.4772C97.6326 18.3552 99.4304 17.9248 100.381 16.4099Z" fill="#0D0F2A"/>
<path d="M104.789 26.8766L104.893 22.0734L104.34 21.557L101.885 24.2254L99.9663 22.4694L107.106 14.7224L111.047 18.3204C112.724 19.8526 112.914 21.9013 111.514 23.4163C110.338 24.6902 108.713 24.8796 107.21 24.0188L107.123 28.9941L104.789 26.8766ZM107.624 21.6258C108.316 22.2456 109.094 22.28 109.612 21.7119C110.131 21.161 110.027 20.3863 109.336 19.7665L107.521 18.1138L105.809 19.9731L107.624 21.6258Z" fill="#0D0F2A"/>
<path d="M111.791 35.0889L106.95 28.9945L115.231 22.4698L116.838 24.5012L110.338 29.6143L113.571 33.6772L111.791 35.0889Z" fill="#0D0F2A"/>
<path d="M123.269 33.8835C124.946 36.9134 124.168 39.9606 121.437 41.4584C118.688 42.9561 115.697 41.9749 114.021 38.9449L112.015 35.2952L121.264 30.2338L123.269 33.8835ZM115.939 37.7914C116.89 39.513 118.567 40.0639 120.157 39.1859C121.765 38.3079 122.18 36.6036 121.229 34.882L120.521 33.5908L115.213 36.5003L115.939 37.7914Z" fill="#0D0F2A"/>
<path d="M124.462 56.0061C121.782 56.2127 119.743 54.5599 119.051 51.9432C118.256 48.9304 119.95 45.9349 122.941 45.143C125.931 44.3511 128.905 46.1243 129.7 49.137C130.374 51.6333 129.441 54.164 127.141 55.283L125.914 52.9761C127.314 52.2703 127.746 51.048 127.401 49.7396C126.969 48.1385 125.344 47.1916 123.598 47.6393C121.869 48.1041 120.901 49.7396 121.316 51.3406C121.661 52.6318 122.664 53.4754 124.272 53.4065L124.462 56.0061Z" fill="#0D0F2A"/>
<path d="M121.212 65.0957L120.538 57.3659L131.048 56.4534L131.273 59.0358L123.01 59.7416L123.459 64.9063L121.212 65.0957Z" fill="#0D0F2A"/>
<path d="M120.659 73.1355L122.63 72.5502L122.975 68.143L121.126 67.265L121.35 64.4932L131.532 69.7096L131.325 72.3608L120.451 75.9072L120.659 73.1355ZM128.507 70.7942L125.153 69.1931L124.946 71.8615L128.507 70.7942Z" fill="#0D0F2A"/>
<path d="M125.793 85.4787L125.914 82.8964C126.917 82.9653 127.591 82.2939 127.798 81.4847C128.006 80.6412 127.695 80.0042 127.107 79.8492C126.692 79.7459 126.346 79.8492 126.035 80.4518L125.015 82.4488C124.168 84.1187 122.941 84.8934 121.316 84.4802C119.138 83.9293 118.498 81.7085 119.086 79.4361C119.673 77.1464 121.264 75.5281 123.321 75.7691L123.165 78.4892C122.042 78.472 121.402 79.0917 121.143 80.1075C120.901 81.0543 121.177 81.7257 121.817 81.8807C122.266 82.0012 122.612 81.8635 122.958 81.1748L123.961 79.1606C124.669 77.7834 125.758 76.6988 127.625 77.1808C129.613 77.6801 130.426 79.6426 129.804 82.0356C129.25 84.2564 127.746 85.582 125.793 85.4787Z" fill="#0D0F2A"/>
<path d="M121.869 94.6895L122.405 92.1588C123.39 92.3826 124.168 91.8317 124.496 91.0742C124.842 90.2823 124.635 89.5937 124.082 89.3527C123.684 89.1805 123.321 89.2322 122.941 89.7831L121.61 91.5907C120.503 93.0885 119.172 93.6738 117.634 93.0196C115.576 92.1244 115.3 89.8347 116.233 87.6828C117.184 85.5136 118.999 84.188 121.004 84.7389L120.417 87.3901C119.31 87.2007 118.584 87.7 118.152 88.664C117.755 89.5593 117.927 90.2651 118.532 90.5233C118.965 90.7127 119.328 90.6266 119.777 90.0069L121.091 88.182C122.007 86.9425 123.269 86.0473 125.032 86.8048C126.917 87.6139 127.401 89.6798 126.415 91.935C125.499 94.0181 123.788 95.1027 121.869 94.6895Z" fill="#0D0F2A"/>
<path d="M119.172 104.089C117.098 106.878 114.003 107.446 111.497 105.587C108.973 103.728 108.627 100.612 110.702 97.8399L113.191 94.5001L121.662 100.749L119.172 104.089ZM112.551 99.0967C111.376 100.681 111.566 102.419 113.035 103.504C114.505 104.588 116.233 104.261 117.409 102.695L118.291 101.507L113.433 97.926L112.551 99.0967Z" fill="#0D0F2A"/>
<path d="M106.795 102.626L114.435 109.873L112.638 111.75L104.997 104.502L106.795 102.626Z" fill="#0D0F2A"/>
<path d="M100.139 116.725C99.8627 116.467 99.6553 116.226 99.4824 116.019C97.4771 113.54 97.8229 110.321 100.295 108.341C102.784 106.344 106.242 106.654 108.178 109.064C110.114 111.457 109.699 114.883 107.244 116.863C105.412 118.326 103.113 118.757 101.246 117.62L102.75 115.503C103.977 116.054 104.962 115.658 105.758 115.021C107.089 113.953 107.262 112.077 106.155 110.7C105.032 109.305 103.13 109.099 101.764 110.183C100.692 111.044 100.347 112.232 100.779 113.385L103.303 111.371L104.686 113.075L100.139 116.725Z" fill="#0D0F2A"/>
<path d="M95.7139 111.939L101.194 120.926L98.9638 122.269L93.4839 113.282L95.7139 111.939Z" fill="#0D0F2A"/>
<path d="M91.4095 123.56L87.9348 116.071L90.2858 114.987L93.7605 122.476L96.8721 121.047L97.8229 123.095L89.2659 127.021L88.3151 124.972L91.4095 123.56Z" fill="#0D0F2A"/>
<path d="M78.2542 119.256L79.4815 120.892L83.7514 119.686L83.9416 117.638L86.621 116.88L85.2554 128.191L82.6969 128.914L75.5747 119.996L78.2542 119.256ZM83.1809 125.764L83.5267 122.079L80.9336 122.803L83.1809 125.764Z" fill="#0D0F2A"/>
<path d="M68.0376 120.633L75.7994 119.807L76.9231 130.257L74.33 130.532L73.4484 122.32L68.2796 122.871L68.0376 120.633Z" fill="#0D0F2A"/>
<path d="M48.849 128.742C46.5498 128.157 45.4608 126.366 46.014 124.266C46.5671 122.131 48.4341 121.098 50.8024 121.701L53.2053 122.321L54.0178 119.205L56.5244 119.859L53.8968 130.033L48.849 128.742ZM50.4394 123.853C49.4713 123.595 48.728 124.008 48.5033 124.869C48.2958 125.695 48.728 126.418 49.7133 126.676L51.9434 127.244L52.6694 124.421L50.4394 123.853Z" fill="#0D0F2A"/>
<path d="M41.5885 114.815L42.9887 119.411L43.6802 119.721L45.1668 116.433L47.5352 117.5L43.1789 127.072L38.3212 124.886C36.2468 123.939 35.4343 122.063 36.2814 120.203C36.9902 118.637 38.4941 117.948 40.1882 118.292L38.7188 113.524L41.5885 114.815ZM40.534 120.668C39.6869 120.289 38.9263 120.496 38.6151 121.202C38.304 121.89 38.6324 122.596 39.4795 122.975L41.7268 123.991L42.7813 121.684L40.534 120.668Z" fill="#0D0F2A"/>
<path d="M27.0676 111.749C28.8308 109.236 32.2536 108.668 34.8294 110.476C37.4051 112.266 38.0448 115.657 36.2815 118.171C34.5182 120.684 31.0781 121.27 28.5024 119.479C25.9266 117.672 25.287 114.28 27.0676 111.749ZM29.1939 113.23C28.1567 114.711 28.4678 116.553 29.8681 117.534C31.2683 118.515 33.118 118.171 34.1552 116.69C35.1924 115.227 34.864 113.402 33.4637 112.421C32.0462 111.44 30.2138 111.767 29.1939 113.23Z" fill="#0D0F2A"/>
<path d="M19.4267 111.526C17.0065 109.03 16.9547 105.896 19.202 103.727C21.4666 101.558 24.5955 101.73 27.0156 104.227L29.9198 107.222L22.3309 114.521L19.4267 111.526ZM25.4771 105.862C24.1114 104.45 22.3482 104.347 21.0344 105.621C19.7206 106.895 19.7551 108.634 21.1208 110.045L22.1407 111.113L26.497 106.929L25.4771 105.862Z" fill="#0D0F2A"/>
<path d="M13.6875 94.62C16.2114 92.9673 18.8908 93.4322 20.4294 95.7563C22.0025 98.132 21.432 100.818 18.9081 102.47L14.0678 105.655L12.633 103.503L17.4733 100.318C18.8217 99.4404 19.1674 98.1665 18.4414 97.0647C17.7499 96.0317 16.4707 95.8768 15.1223 96.772L10.282 99.9569L8.84717 97.8049L13.6875 94.62Z" fill="#0D0F2A"/>
<path d="M9.64236 83.2927C12.27 82.7246 14.5173 84.1019 15.5545 86.5809C16.7646 89.4559 15.4853 92.658 12.6157 93.8459C9.76337 95.0338 6.58258 93.6738 5.3725 90.7988C4.36986 88.4058 4.95762 85.789 7.06662 84.3601L8.60515 86.4776C7.32592 87.3728 7.04933 88.6296 7.56794 89.8863C8.20755 91.4185 9.95353 92.1416 11.6131 91.4529C13.2726 90.7643 14.0159 89.0083 13.359 87.4761C12.8404 86.2366 11.7341 85.548 10.1437 85.8234L9.64236 83.2927Z" fill="#0D0F2A"/>
<path d="M4.1624 78.4029L12.2527 76.5953L12.8231 79.1088L4.73287 80.9164L5.47621 84.239L3.28077 84.7383L1.22363 75.5796L3.43635 75.0803L4.1624 78.4029Z" fill="#0D0F2A"/>
<path d="M3.3154 65.5089L3.98959 68.0052C3.00423 68.2634 2.57206 69.107 2.62392 69.9333C2.67578 70.7941 3.1771 71.3106 3.78214 71.2761C4.21432 71.2417 4.50819 71.0351 4.61191 70.3809L4.95765 68.1773C5.25153 66.3352 6.16773 65.2162 7.84456 65.0957C10.0919 64.958 11.3884 66.8689 11.5267 69.193C11.6822 71.5516 10.6623 73.5658 8.62247 73.979L7.931 71.345C9.00278 71.0179 9.41767 70.226 9.34852 69.1758C9.27937 68.2117 8.81263 67.6608 8.17301 67.6953C7.70627 67.7297 7.41239 67.9707 7.30867 68.7282L6.9975 70.9662C6.75549 72.4984 6.04673 73.8585 4.12788 73.979C2.08803 74.0995 0.705079 72.4984 0.549497 70.0366C0.393915 67.7469 1.43113 66.0254 3.3154 65.5089Z" fill="#0D0F2A"/>
<path d="M64.5494 131.028C62.2352 128.138 61.5724 126.047 58.0358 127.268C60.9219 124.41 63.3576 123.79 61.7964 120.754C64.265 123.17 64.8781 125.452 68.31 124.515C65.423 126.804 63.1731 127.473 64.5494 131.028Z" fill="#0BE1E2"/>
<path d="M74.5494 12.0284C72.2352 9.13779 71.5724 7.04664 68.0358 8.2678C70.9219 5.41029 73.3576 4.78975 71.7964 1.75424C74.265 4.17025 74.8781 6.45214 78.31 5.51485C75.423 7.80384 73.1731 8.47312 74.5494 12.0284Z" fill="#0BE1E2"/>
</g>
<defs>
<clipPath id="clip0_408_6750">
<rect width="130.064" height="131" fill="white" transform="translate(0.532227 130.532) rotate(-90)"/>
</clipPath>
</defs>
</svg>
