<svg width="17" height="17" viewBox="0 0 17 17" fill="none" xmlns="http://www.w3.org/2000/svg">
<g clip-path="url(#clip0_1103_3393)">
<path d="M15.6787 3.72278C15.6777 3.72278 15.6768 3.72266 15.6758 3.72266H11.4258V3.25391C11.4258 2.47852 10.7949 1.84766 10.0195 1.84766H6.26953C5.49414 1.84766 4.86328 2.47852 4.86328 3.25391V3.72266H0.613281C0.352295 3.72266 0.144531 3.93652 0.144531 4.19141V14.5039C0.144531 15.2793 0.775391 15.9102 1.55078 15.9102H14.7383C15.5137 15.9102 16.1445 15.2793 16.1445 14.5039V4.20129C16.1445 4.20068 16.1445 4.20007 16.1445 4.19946C16.1266 3.8916 15.9373 3.72449 15.6787 3.72278ZM5.80078 3.25391C5.80078 2.99548 6.01111 2.78516 6.26953 2.78516H10.0195C10.278 2.78516 10.4883 2.99548 10.4883 3.25391V3.72266H5.80078V3.25391ZM15.0254 4.66016L13.5697 9.0271C13.5059 9.21887 13.3271 9.34766 13.1251 9.34766H10.4883V8.87891C10.4883 8.62 10.2784 8.41016 10.0195 8.41016H6.26953C6.01062 8.41016 5.80078 8.62 5.80078 8.87891V9.34766H3.16394C2.96191 9.34766 2.7832 9.21887 2.71936 9.0271L1.26367 4.66016H15.0254ZM9.55078 9.34766V10.2852H6.73828V9.34766H9.55078ZM15.207 14.5039C15.207 14.7623 14.9967 14.9727 14.7383 14.9727H1.55078C1.29236 14.9727 1.08203 14.7623 1.08203 14.5039V7.07996L1.82996 9.32361C2.02161 9.8988 2.55774 10.2852 3.16394 10.2852H5.80078V10.7539C5.80078 11.0128 6.01062 11.2227 6.26953 11.2227H10.0195C10.2784 11.2227 10.4883 11.0128 10.4883 10.7539V10.2852H13.1251C13.7313 10.2852 14.2675 9.8988 14.4591 9.32361L15.207 7.07996V14.5039Z" fill="#0B0D28"/>
</g>
<defs>
<clipPath id="clip0_1103_3393">
<rect width="16" height="16" fill="white" transform="translate(0.144531 0.878906)"/>
</clipPath>
</defs>
</svg>
