<svg width="301" height="302" viewBox="0 0 301 302" fill="none" xmlns="http://www.w3.org/2000/svg">
<path opacity="0.25" d="M179.929 301V152.765C179.929 112.373 190.72 79.2353 212.301 53.3529C233.883 27.4706 263.115 10.0196 300 1V66.2941C288.621 69.8235 279.4 74.3333 272.337 79.8235C265.274 84.9216 259.78 91 255.856 98.0588C251.932 105.118 249.382 113.353 248.205 122.765C247.028 131.784 246.439 141.784 246.439 152.765V169.235H300V301H179.929ZM1 301V152.765C1 112.373 11.7907 79.2353 33.372 53.3529C54.9534 27.4706 84.1864 10.0196 121.071 1V66.2941C109.692 69.8235 100.47 74.3333 93.4075 79.8235C86.3445 84.9216 80.8511 91 76.9272 98.0588C73.3957 105.118 70.8451 113.353 69.2756 122.765C68.0984 131.784 67.5098 141.784 67.5098 152.765V169.235H121.071V301H1Z" stroke="url(#paint0_linear_1211_3574)"/>
<defs>
<linearGradient id="paint0_linear_1211_3574" x1="129.401" y1="22.7939" x2="134.072" y2="273.335" gradientUnits="userSpaceOnUse">
<stop stop-color="#15F2C6"/>
<stop offset="1" stop-color="#00CEFF"/>
</linearGradient>
</defs>
</svg>
