<svg width="16" height="17" viewBox="0 0 16 17" fill="none" xmlns="http://www.w3.org/2000/svg">
<g clip-path="url(#clip0_1079_3408)">
<path fill-rule="evenodd" clip-rule="evenodd" d="M13.654 6.41258C13.984 7.16791 14.1673 8.00191 14.1673 8.87858C14.1673 12.2819 11.404 15.0452 8.00065 15.0452C4.59732 15.0452 1.83398 12.2819 1.83398 8.87858C1.83398 5.47525 4.59732 2.71191 8.00065 2.71191C8.27665 2.71191 8.50065 2.48791 8.50065 2.21191C8.50065 1.93591 8.27665 1.71191 8.00065 1.71191C4.04532 1.71191 0.833984 4.92325 0.833984 8.87858C0.833984 12.8339 4.04532 16.0452 8.00065 16.0452C11.956 16.0452 15.1673 12.8339 15.1673 8.87858C15.1673 7.85925 14.954 6.88991 14.57 6.01125C14.4593 5.75858 14.164 5.64325 13.9113 5.75391C13.6587 5.86458 13.5433 6.15925 13.654 6.41258Z" fill="black"/>
<path fill-rule="evenodd" clip-rule="evenodd" d="M11.3337 1.71191C10.0671 1.71191 9.03906 2.73991 9.03906 4.00658C9.03906 4.40258 9.2184 4.88458 9.49573 5.35525C10.0524 6.30258 10.9804 7.23191 10.9804 7.23191C11.1757 7.42725 11.4917 7.42725 11.6871 7.23191C11.6871 7.23191 12.6151 6.30258 13.1717 5.35525C13.4491 4.88458 13.6284 4.40258 13.6284 4.00658C13.6284 2.73991 12.6004 1.71191 11.3337 1.71191ZM11.3337 2.71191C12.0484 2.71191 12.6284 3.29191 12.6284 4.00658C12.6284 4.35858 12.3664 4.79125 12.0851 5.19925C11.8337 5.56325 11.5504 5.90191 11.3337 6.14591C11.1171 5.90191 10.8337 5.56325 10.5824 5.19925C10.3011 4.79125 10.0391 4.35858 10.0391 4.00658C10.0391 3.29191 10.6191 2.71191 11.3337 2.71191Z" fill="black"/>
<path fill-rule="evenodd" clip-rule="evenodd" d="M1.06925 9.30284L3.24925 10.6655C3.64659 10.9135 4.10592 11.0455 4.57392 11.0455H5.08059C5.51859 11.0455 5.93459 11.2368 6.21992 11.5695L6.92059 12.3875C7.24859 12.7702 7.36259 13.2915 7.22459 13.7755C7.04592 14.3995 6.85325 15.0748 6.85325 15.0748C6.77725 15.3402 6.93125 15.6168 7.19659 15.6928C7.46192 15.7688 7.73859 15.6148 7.81459 15.3495C7.81459 15.3495 8.00725 14.6742 8.18592 14.0502C8.41659 13.2435 8.22659 12.3742 7.67992 11.7368C7.45125 11.4695 7.19925 11.1762 6.97859 10.9188C6.50392 10.3642 5.81059 10.0455 5.08059 10.0455H4.57392C4.29325 10.0455 4.01792 9.96684 3.77925 9.81751L1.59859 8.45484C1.36459 8.30884 1.05592 8.37951 0.90992 8.61417C0.76392 8.84817 0.834587 9.15684 1.06925 9.30284Z" fill="black"/>
<path fill-rule="evenodd" clip-rule="evenodd" d="M3.55281 3.7684C3.55281 3.7684 4.22747 5.11773 4.61681 5.8964C4.85214 6.36773 5.27881 6.7144 5.78814 6.84906L6.96014 7.15906C7.25547 7.23706 7.48414 7.4704 7.55614 7.76706L8.05814 9.82506C8.16681 10.2717 8.43947 10.6611 8.82214 10.9164L9.13281 11.1231C9.57014 11.4151 10.1121 11.5051 10.6201 11.3697C11.1288 11.2351 11.5541 10.8884 11.7895 10.4177L12.1728 9.6504C12.2821 9.43306 12.4801 9.27373 12.7161 9.21506C12.7161 9.2144 14.5768 8.74973 14.5768 8.74973C14.8441 8.6824 15.0075 8.41106 14.9401 8.14306C14.8735 7.87573 14.6021 7.7124 14.3341 7.77973L12.4735 8.2444C11.9548 8.3744 11.5181 8.7244 11.2788 9.20306L10.8948 9.97039C10.7881 10.1844 10.5948 10.3417 10.3635 10.4031C10.1328 10.4644 9.88614 10.4237 9.68747 10.2911L9.37681 10.0844C9.20281 9.9684 9.07881 9.79106 9.02947 9.58839L8.52814 7.5304C8.36881 6.87773 7.86547 6.3644 7.21547 6.1924L6.04347 5.8824C5.81214 5.82106 5.61814 5.66373 5.51147 5.44906C5.12147 4.6704 4.44747 3.32173 4.44747 3.32173C4.32414 3.0744 4.02347 2.9744 3.77681 3.09773C3.52947 3.22106 3.42947 3.52173 3.55281 3.7684Z" fill="black"/>
</g>
<defs>
<clipPath id="clip0_1079_3408">
<rect width="16" height="16" fill="white" transform="translate(0 0.878906)"/>
</clipPath>
</defs>
</svg>
