<svg width="60" height="60" viewBox="0 0 60 60" fill="none" xmlns="http://www.w3.org/2000/svg">
<rect width="60" height="60" rx="12.5" fill="url(#paint0_linear_1195_3671)"/>
<mask id="mask0_1195_3671" style="mask-type:alpha" maskUnits="userSpaceOnUse" x="0" y="0" width="60" height="60">
<rect width="60" height="60" rx="12.5" fill="url(#paint1_linear_1195_3671)"/>
</mask>
<g mask="url(#mask0_1195_3671)">
</g>
<g clip-path="url(#clip0_1195_3671)">
<path d="M30 14C20.6256 14 13 21.6256 13 31C13 40.3744 20.6256 48 30 48C39.3744 48 47 40.3744 47 31C47 21.6256 39.3744 14 30 14ZM29.2916 42.3334C28.1198 42.3334 27.1666 41.3802 27.1666 40.2084C27.1666 39.0366 28.1198 38.0834 29.2916 38.0834C30.4634 38.0834 31.4166 39.0366 31.4166 40.2084C31.4166 41.3802 30.4634 42.3334 29.2916 42.3334ZM31.4166 33.6922V35.9584C31.4166 36.3499 31.0998 36.6667 30.7083 36.6667H27.875C27.4835 36.6667 27.1666 36.3499 27.1666 35.9584V32.4167C27.1666 30.8548 28.4381 29.5834 30 29.5834C31.5619 29.5834 32.8334 28.3119 32.8334 26.75C32.8334 25.1881 31.5619 23.9166 30 23.9166C28.4381 23.9166 27.1666 25.1881 27.1666 26.75V27.4584C27.1666 27.8499 26.8498 28.1667 26.4583 28.1667H23.625C23.2335 28.1667 22.9166 27.8499 22.9166 27.4584V26.75C22.9166 22.8444 26.0944 19.6666 30 19.6666C33.9056 19.6666 37.0834 22.8445 37.0834 26.75C37.0834 30.1492 34.6885 33.0296 31.4166 33.6922Z" fill="#0B0D28"/>
</g>
<defs>
<linearGradient id="paint0_linear_1195_3671" x1="30" y1="0" x2="30" y2="60" gradientUnits="userSpaceOnUse">
<stop stop-color="#00CEFF"/>
<stop offset="1" stop-color="#0054FC"/>
</linearGradient>
<linearGradient id="paint1_linear_1195_3671" x1="30" y1="0" x2="30" y2="60" gradientUnits="userSpaceOnUse">
<stop stop-color="#00CEFF"/>
<stop offset="1" stop-color="#0054FC"/>
</linearGradient>
<clipPath id="clip0_1195_3671">
<rect width="34" height="34" fill="white" transform="translate(13 14)"/>
</clipPath>
</defs>
</svg>
