<svg width="25" height="25" viewBox="0 0 25 25" fill="none" xmlns="http://www.w3.org/2000/svg">
<g clip-path="url(#clip0_880_7507)">
<path d="M12.5 0C5.60729 0 0 5.60729 0 12.5C0 19.3927 5.60729 25 12.5 25C19.3927 25 25 19.3927 25 12.5C25 5.60729 19.3927 0 12.5 0ZM16.3615 14.8885C16.7687 15.2958 16.7687 15.9542 16.3615 16.3615C16.1583 16.5646 15.8917 16.6667 15.625 16.6667C15.3583 16.6667 15.0917 16.5646 14.8885 16.3615L12.5 13.9729L10.1115 16.3615C9.90833 16.5646 9.64167 16.6667 9.375 16.6667C9.10833 16.6667 8.84167 16.5646 8.63854 16.3615C8.23125 15.9542 8.23125 15.2958 8.63854 14.8885L11.0271 12.5L8.63854 10.1115C8.23125 9.70417 8.23125 9.04583 8.63854 8.63854C9.04583 8.23125 9.70417 8.23125 10.1115 8.63854L12.5 11.0271L14.8885 8.63854C15.2958 8.23125 15.9542 8.23125 16.3615 8.63854C16.7687 9.04583 16.7687 9.70417 16.3615 10.1115L13.9729 12.5L16.3615 14.8885Z" fill="url(#paint0_linear_880_7507)"/>
</g>
<defs>
<linearGradient id="paint0_linear_880_7507" x1="12.5" y1="0" x2="12.5" y2="25" gradientUnits="userSpaceOnUse">
<stop stop-color="#FF002E"/>
<stop offset="1" stop-color="#FB4444"/>
</linearGradient>
<clipPath id="clip0_880_7507">
<rect width="25" height="25" fill="white"/>
</clipPath>
</defs>
</svg>
