<svg width="60" height="60" viewBox="0 0 60 60" fill="none" xmlns="http://www.w3.org/2000/svg">
<rect width="60" height="60" rx="12.5" fill="url(#paint0_linear_1195_3675)"/>
<mask id="mask0_1195_3675" style="mask-type:alpha" maskUnits="userSpaceOnUse" x="0" y="0" width="60" height="60">
<rect width="60" height="60" rx="12.5" fill="url(#paint1_linear_1195_3675)"/>
</mask>
<g mask="url(#mask0_1195_3675)">
<path d="M30 25.9141C33.5661 25.9141 36.457 23.0232 36.457 19.457C36.457 15.8909 33.5661 13 30 13C26.4339 13 23.543 15.8909 23.543 19.457C23.543 23.0232 26.4339 25.9141 30 25.9141Z" fill="#0B0D28"/>
<path d="M43.0625 25.9141C45.3169 25.9141 47.1445 24.0865 47.1445 21.832C47.1445 19.5776 45.3169 17.75 43.0625 17.75C40.8081 17.75 38.9805 19.5776 38.9805 21.832C38.9805 24.0865 40.8081 25.9141 43.0625 25.9141Z" fill="#0B0D28"/>
<path d="M16.9375 25.9141C19.1919 25.9141 21.0195 24.0865 21.0195 21.832C21.0195 19.5776 19.1919 17.75 16.9375 17.75C14.6831 17.75 12.8555 19.5776 12.8555 21.832C12.8555 24.0865 14.6831 25.9141 16.9375 25.9141Z" fill="#0B0D28"/>
<path d="M20.9594 29.5795C19.3526 28.2631 17.8974 28.4373 16.0395 28.4373C13.2607 28.4373 11 30.6847 11 33.4463V41.5518C11 42.7512 11.9789 43.7264 13.1828 43.7264C18.38 43.7264 17.7539 43.8204 17.7539 43.5022C17.7539 37.7588 17.0736 33.5468 20.9594 29.5795Z" fill="#0B0D28"/>
<path d="M31.7671 28.4675C28.522 28.1968 25.7013 28.4706 23.2683 30.4788C19.1969 33.74 19.9804 38.131 19.9804 43.5027C19.9804 44.9239 21.1368 46.1018 22.5796 46.1018C38.2458 46.1018 38.8693 46.6072 39.7983 44.5499C40.103 43.8542 40.0195 44.0753 40.0195 37.4197C40.0195 32.1334 35.4422 28.4675 31.7671 28.4675Z" fill="#0B0D28"/>
<path d="M43.9605 28.4371C42.0924 28.4371 40.6452 28.2647 39.0405 29.5794C42.8973 33.5171 42.246 37.4417 42.246 43.5021C42.246 43.8222 41.7263 43.7262 46.7392 43.7262C47.9861 43.7262 48.9999 42.7161 48.9999 41.4744V33.4462C48.9999 30.6845 46.7392 28.4371 43.9605 28.4371Z" fill="#0B0D28"/>
</g>
<defs>
<linearGradient id="paint0_linear_1195_3675" x1="30" y1="0" x2="30" y2="60" gradientUnits="userSpaceOnUse">
<stop stop-color="#00CEFF"/>
<stop offset="1" stop-color="#0054FC"/>
</linearGradient>
<linearGradient id="paint1_linear_1195_3675" x1="30" y1="0" x2="30" y2="60" gradientUnits="userSpaceOnUse">
<stop stop-color="#00CEFF"/>
<stop offset="1" stop-color="#0054FC"/>
</linearGradient>
</defs>
</svg>
