<svg width="60" height="60" viewBox="0 0 60 60" fill="none" xmlns="http://www.w3.org/2000/svg">
<rect width="60" height="60" rx="12.5" fill="url(#paint0_linear_1200_3549)"/>
<path d="M10.8444 17.5C10.0295 17.5007 9.24779 17.1775 8.67139 16.6018L16.2732 9C17.4706 10.201 17.4706 12.1448 16.2732 13.3461L13.0175 16.6018C12.4408 17.1775 11.6593 17.5007 10.8444 17.5ZM13.4781 18.3139L17.9853 13.8067L21.5864 16.379L23.0148 17.4003L24.3201 18.3293L18.0007 24.6487L13.4781 18.3139ZM18.4459 30.7145C17.2501 29.5158 17.2501 27.575 18.4459 26.3763L21.9551 22.8674L23.1991 21.6234L26.0477 18.7745C27.2487 17.5771 29.1924 17.5771 30.3938 18.7745L24.6196 24.549L23.5292 25.6316L18.4459 30.7145ZM25.303 27.4438L24.4966 26.8369L24.6426 26.6912L25.7252 25.6086L26.5083 24.8252L32.4901 32.8108L28.0747 29.5092L25.303 27.4438ZM47.9236 22.4757L47.0637 23.7656C46.9361 23.9506 46.8472 24.1596 46.8026 24.38L46.1268 27.7663C46.1216 27.7987 46.1055 27.8286 46.0809 27.8506L44.0843 29.8547L41.9729 31.2676C41.74 31.4356 41.5504 31.6567 41.4198 31.9126L38.7786 37.2029C38.6769 37.4043 38.4916 37.5506 38.2718 37.6021L37.0511 37.9095C36.0239 38.1631 35.3038 39.0859 35.3078 40.1439C35.3055 40.473 35.0965 40.7649 34.7858 40.8732L33.7183 41.2265C33.4759 41.3092 33.2554 41.4456 33.0734 41.6257L31.7989 42.9081C31.6972 42.9888 31.6112 43.0879 31.5456 43.1998L30.3324 45.0195C30.0697 45.4155 29.9306 45.8807 29.9329 46.3557V47.4767C29.9338 47.7109 29.8394 47.9353 29.6721 48.0987L29.5644 48.2138C29.363 48.3962 29.2144 48.6298 29.1344 48.8896L28.4664 50.8783C28.4513 50.9157 28.4386 50.9541 28.4281 50.9935L28.1669 51.5079C28.0042 51.8385 27.6532 52.0331 27.2864 51.9953C26.92 51.9576 26.6159 51.6958 26.5237 51.3389L26.1858 49.9643C26.1408 49.8082 26.1461 49.6415 26.2012 49.4883L26.6851 48.0373C26.8143 47.6407 26.8383 47.2172 26.754 46.8087L26.0939 43.4609V41.5644C26.0929 40.9729 26.2294 40.3893 26.4932 39.8598L27.0689 38.7155C27.4357 37.9728 27.6273 37.156 27.6296 36.3276C27.6269 36.0776 27.6502 35.828 27.6985 35.5829L28.0442 33.8704C28.0478 33.8298 28.0478 33.7884 28.0442 33.7478C28.2138 33.048 28.309 32.3325 28.3283 31.6131L31.5991 34.0624C31.8536 34.2326 32.1532 34.3235 32.4592 34.3235C33.0327 34.3205 33.5569 33.999 33.8197 33.4892C34.0828 32.9798 34.0408 32.3663 33.7108 31.8972L27.5987 23.7351L31.4764 19.8574C32.0702 19.2548 32.0702 18.287 31.4764 17.6844C29.8554 16.0716 27.2982 15.8886 25.464 17.2543L23.2296 15.6573C23.414 14.5593 23.6522 13.538 23.8746 12.6857C23.8825 12.6395 23.8746 12.6011 23.8825 12.5627L24.2204 11.2036C24.3716 10.5845 24.7499 10.0449 25.28 9.69122C25.8863 9.29066 26.6326 9.16239 27.3376 9.3379L29.0117 9.75257L32.5668 10.4664C32.599 10.4727 32.6285 10.4887 32.6512 10.5127L34.5017 12.3554C34.8173 12.6654 35.2418 12.8389 35.6841 12.8393H37.9185C37.9664 12.8419 38.0106 12.8642 38.0415 12.9006L39.4157 14.7358C39.4781 14.8201 39.5105 14.9228 39.5079 15.0274C39.5115 15.1547 39.4613 15.2774 39.3698 15.3653C39.1759 15.5638 39.1028 15.8508 39.1779 16.1179C39.2523 16.3833 39.4633 16.5883 39.7307 16.6552L42.756 17.4157L46.864 19.0586C47.5096 19.3125 48.0043 19.8466 48.2077 20.5099C48.4134 21.1746 48.3091 21.8966 47.9236 22.4757Z" fill="#0B0D28"/>
<defs>
<linearGradient id="paint0_linear_1200_3549" x1="30" y1="0" x2="30" y2="60" gradientUnits="userSpaceOnUse">
<stop stop-color="#00CEFF"/>
<stop offset="1" stop-color="#0054FC"/>
</linearGradient>
</defs>
</svg>
