<svg width="164" height="31" viewBox="0 0 164 31" fill="none" xmlns="http://www.w3.org/2000/svg">
<path d="M64.9462 23.9531L57.4959 6.12568H52.9992L45.5489 23.9531H50.2585L51.5091 20.7069H59.0126L60.2632 23.9531H64.9462ZM57.5491 16.9285H52.9992L55.2609 11.0748L57.5491 16.9285Z" fill="white"/>
<path d="M73.1286 6.12568V23.9531H77.5189V18.4984H81.723C85.8472 18.4984 88.4548 16.0239 88.4548 12.2721C88.4548 8.60023 85.927 6.12568 81.9092 6.12568H73.1286ZM77.5189 14.8265V9.87742H81.4037C83.1066 9.87742 84.1443 10.8885 84.1443 12.3254C84.1443 13.842 83.1066 14.8265 81.4037 14.8265H77.5189Z" fill="white"/>
<path d="M113.787 23.9531L108.2 17.6204C111.073 16.9818 112.883 14.8797 112.883 11.9528C112.883 8.46719 110.328 6.12568 106.47 6.12568H97.45V23.9531H101.84V17.8332H103.117L108.492 23.9531H113.787ZM101.84 14.1613V9.87742H105.991C107.561 9.87742 108.572 10.7289 108.572 12.0061C108.572 13.3099 107.561 14.1613 105.991 14.1613H101.84Z" fill="white"/>
<path d="M130.788 5.72656C125.467 5.72656 121.289 9.85081 121.289 15.066C121.289 20.2546 125.467 24.3522 130.788 24.3522C136.11 24.3522 140.287 20.2546 140.287 15.066C140.287 9.85081 136.11 5.72656 130.788 5.72656ZM130.788 20.3344C127.888 20.3344 125.68 18.0993 125.68 15.066C125.68 12.0061 127.888 9.74438 130.788 9.74438C133.689 9.74438 135.897 12.0061 135.897 15.066C135.897 18.0993 133.689 20.3344 130.788 20.3344Z" fill="white"/>
<path d="M156.417 5.72656C152.239 5.72656 149.366 7.88181 149.366 11.3409C149.366 14.587 151.601 15.9174 154.155 16.5028L157.88 17.3011C159.157 17.5671 159.53 18.0727 159.53 18.8709C159.53 19.9619 158.545 20.7069 156.896 20.7069C155.113 20.7069 153.836 19.9086 153.383 18.0727L148.86 18.9508C149.339 22.4364 152.638 24.3522 156.656 24.3522C160.621 24.3522 164 22.3832 164 18.5782C164 15.7578 162.191 14.0815 159.104 13.3897L155.406 12.5648C154.288 12.3254 153.969 11.7932 153.969 11.0748C153.969 10.0637 154.9 9.26543 156.363 9.26543C157.774 9.26543 159.157 10.0903 159.477 11.7666L163.787 10.8885C163.122 7.64234 160.301 5.72656 156.417 5.72656Z" fill="white"/>
<path d="M26.8505 28.1183C28.495 28.7823 30.07 27.0274 29.2328 25.464L17.2953 3.17291C16.5749 1.82771 14.6418 1.84057 13.9393 3.19523L2.40175 25.4458C1.58625 27.0186 3.18051 28.7515 4.81563 28.0697L14.8778 23.874C15.3381 23.682 15.8554 23.6791 16.3179 23.8658L26.8505 28.1183Z" fill="white"/>
<rect x="3.33942" y="14.2305" width="7.25916" height="16.9607" rx="3.62958" transform="rotate(-45 3.33942 14.2305)" fill="url(#paint0_linear_236_7373)"/>
<rect x="29.306" y="2.13672" width="7.25916" height="26.9664" rx="3.62958" transform="rotate(45 29.306 2.13672)" fill="url(#paint1_linear_236_7373)"/>
<path opacity="0.5" fill-rule="evenodd" clip-rule="evenodd" d="M12.4414 23.3958C11.4271 21.9597 11.5626 19.96 12.848 18.6746L15.4874 16.0352L18.0115 18.5592C19.4484 19.9961 19.4484 22.3257 18.0115 23.7626C16.5746 25.1994 14.245 25.1994 12.8082 23.7626L12.4414 23.3958Z" fill="#00CEFF"/>
<defs>
<linearGradient id="paint0_linear_236_7373" x1="6.969" y1="14.2305" x2="6.969" y2="31.1912" gradientUnits="userSpaceOnUse">
<stop stop-color="#00CEFF"/>
<stop offset="1" stop-color="#0054FC"/>
</linearGradient>
<linearGradient id="paint1_linear_236_7373" x1="32.4233" y1="4.09573" x2="33.971" y2="26.5174" gradientUnits="userSpaceOnUse">
<stop stop-color="#15F2C6"/>
<stop offset="1" stop-color="#00CEFF"/>
</linearGradient>
</defs>
</svg>
