<svg width="36" height="36" viewBox="0 0 36 36" fill="none" xmlns="http://www.w3.org/2000/svg">
<path d="M30.7051 3.00021H5.29509C5.00946 2.99624 4.72584 3.04858 4.46044 3.15424C4.19503 3.25989 3.95304 3.41679 3.74828 3.61598C3.54353 3.81516 3.38001 4.05274 3.26708 4.31512C3.15414 4.57751 3.094 4.85958 3.09009 5.14521V30.8552C3.094 31.1408 3.15414 31.4229 3.26708 31.6853C3.38001 31.9477 3.54353 32.1853 3.74828 32.3844C3.95304 32.5836 4.19503 32.7405 4.46044 32.8462C4.72584 32.9518 5.00946 33.0042 5.29509 33.0002H30.7051C30.9907 33.0042 31.2743 32.9518 31.5397 32.8462C31.8051 32.7405 32.0471 32.5836 32.2519 32.3844C32.4566 32.1853 32.6202 31.9477 32.7331 31.6853C32.846 31.4229 32.9062 31.1408 32.9101 30.8552V5.14521C32.9062 4.85958 32.846 4.57751 32.7331 4.31512C32.6202 4.05274 32.4566 3.81516 32.2519 3.61598C32.0471 3.41679 31.8051 3.25989 31.5397 3.15424C31.2743 3.04858 30.9907 2.99624 30.7051 3.00021ZM12.1351 28.1102H7.63509V14.6102H12.1351V28.1102ZM9.88509 12.7202C9.26448 12.7202 8.66929 12.4737 8.23046 12.0348C7.79162 11.596 7.54509 11.0008 7.54509 10.3802C7.54509 9.7596 7.79162 9.16442 8.23046 8.72558C8.66929 8.28675 9.26448 8.04021 9.88509 8.04021C10.2146 8.00284 10.5484 8.03549 10.8644 8.13603C11.1804 8.23658 11.4717 8.40274 11.7191 8.62365C11.9664 8.84456 12.1644 9.11523 12.2999 9.41793C12.4354 9.72064 12.5055 10.0486 12.5055 10.3802C12.5055 10.7119 12.4354 11.0398 12.2999 11.3425C12.1644 11.6452 11.9664 11.9159 11.7191 12.1368C11.4717 12.3577 11.1804 12.5238 10.8644 12.6244C10.5484 12.7249 10.2146 12.7576 9.88509 12.7202ZM28.3651 28.1102H23.8651V20.8652C23.8651 19.0502 23.2201 17.8652 21.5851 17.8652C21.0791 17.8689 20.5864 18.0276 20.1733 18.32C19.7603 18.6123 19.4468 19.0242 19.2751 19.5002C19.1577 19.8528 19.1068 20.2241 19.1251 20.5952V28.0952H14.6251C14.6251 28.0952 14.6251 15.8252 14.6251 14.5952H19.1251V16.5002C19.5339 15.7909 20.1284 15.2065 20.8447 14.81C21.561 14.4135 22.3719 14.22 23.1901 14.2502C26.1901 14.2502 28.3651 16.1852 28.3651 20.3402V28.1102Z" fill="url(#paint0_linear_262_9843)"/>
<defs>
<linearGradient id="paint0_linear_262_9843" x1="18.0001" y1="3" x2="18.0001" y2="33.0004" gradientUnits="userSpaceOnUse">
<stop stop-color="#00CEFF"/>
<stop offset="1" stop-color="#0054FC"/>
</linearGradient>
</defs>
</svg>
